<?xml version="1.0" standalone="no"?>
<!-- Creator: fig2dev Version 3.2.7a -->
<!-- CreationDate: 2019-05-31 14:31:08 -->
<!-- Magnification: 3 -->
<svg	xmlns="http://www.w3.org/2000/svg"
	xmlns:xlink="http://www.w3.org/1999/xlink"
	width="798pt" height="502pt"
	viewBox="121 121 4431 2785">
<g fill="none">
<!-- Line -->
<polyline points=" 2906,457 2903,455 2897,452 2887,446 2871,437 2850,425 2824,410 2795,394 2764,376
 2732,358 2700,340 2669,323 2639,307 2611,293 2585,279 2560,267 2537,256 2515,245
 2495,236 2475,228 2455,220 2436,213 2413,205 2389,197 2365,190 2341,184 2317,178
 2292,173 2267,168 2242,164 2218,160 2195,158 2172,156 2150,154 2130,154 2111,154
 2094,155 2077,156 2063,158 2049,161 2037,164 2027,167 2017,171 2007,175 1999,180
 1991,186 1983,192 1977,199 1971,207 1967,215 1963,223 1960,232 1958,241 1957,251
 1957,260 1958,270 1960,280 1962,290 1965,301 1969,311 1975,323 1981,336 1988,350
 1998,365 2008,381 2021,399 2035,419 2052,441 2070,464 2089,489 2108,513 2126,536
 2143,557 2156,573 2165,584 2170,591 2173,594" fill="#ffd600"
	stroke="#000000" stroke-width="30px" stroke-linejoin="bevel"/>
<!-- Line -->
<polyline points=" 3366,2328 3365,2331 3362,2339 3358,2351 3352,2368 3345,2388 3337,2410 3328,2433
 3320,2454 3312,2474 3305,2493 3298,2509 3291,2525 3284,2539 3277,2553 3270,2566
 3262,2579 3254,2592 3245,2606 3236,2619 3226,2633 3215,2648 3204,2662 3192,2676
 3179,2690 3167,2704 3154,2717 3140,2729 3127,2741 3114,2753 3100,2763 3087,2774
 3070,2785 3054,2796 3036,2807 3017,2818 2998,2828 2979,2838 2959,2847 2940,2854
 2922,2861 2905,2866 2890,2870 2876,2872 2864,2873 2853,2873 2846,2872 2839,2870
 2833,2867 2828,2863 2823,2858 2819,2852 2816,2845 2813,2837 2811,2828 2810,2818
 2809,2808 2809,2797 2809,2786 2810,2774 2811,2761 2813,2749 2815,2736 2817,2723
 2819,2707 2822,2691 2826,2673 2829,2655 2834,2636 2838,2616 2843,2596 2847,2576
 2852,2556 2857,2537 2862,2518 2867,2501 2872,2485 2876,2469 2881,2456 2885,2443
 2891,2425 2898,2410 2905,2396 2913,2382 2921,2369 2930,2357 2938,2347 2944,2340
 2947,2337 2947,2336" fill="#ffd600"
	stroke="#000000" stroke-width="30px" stroke-linejoin="bevel"/>
<!-- Line -->
<polyline points=" 2583,2223 2582,2226 2579,2234 2575,2246 2569,2263 2562,2283 2554,2305 2545,2328
 2537,2349 2529,2369 2522,2388 2515,2404 2508,2420 2501,2434 2494,2448 2487,2461
 2479,2474 2471,2487 2462,2501 2453,2514 2443,2528 2432,2543 2421,2557 2409,2571
 2396,2585 2384,2599 2371,2612 2357,2624 2344,2636 2331,2648 2317,2658 2304,2669
 2287,2680 2271,2691 2253,2702 2234,2713 2215,2723 2196,2733 2176,2742 2157,2749
 2139,2756 2122,2761 2107,2765 2093,2767 2081,2768 2070,2768 2063,2767 2056,2765
 2050,2762 2045,2758 2040,2753 2036,2747 2033,2740 2030,2732 2028,2723 2027,2713
 2026,2703 2026,2692 2026,2681 2027,2669 2028,2656 2030,2644 2032,2631 2034,2618
 2036,2602 2039,2586 2043,2568 2046,2550 2051,2531 2055,2511 2060,2491 2064,2471
 2069,2451 2074,2432 2079,2413 2084,2396 2089,2380 2093,2364 2098,2351 2102,2338
 2108,2320 2115,2305 2122,2291 2130,2277 2138,2264 2147,2252 2155,2242 2161,2235
 2164,2232 2164,2231" fill="#ffd600"
	stroke="#000000" stroke-width="30px" stroke-linejoin="bevel"/>
<!-- Line -->
<polyline points=" 1277,1094 1274,1092 1268,1089 1257,1083 1240,1073 1219,1061 1194,1047 1166,1032
 1137,1015 1107,999 1079,983 1051,968 1025,954 1001,941 978,929 956,917 935,907
 914,896 893,886 873,876 853,867 834,858 814,849 793,839 772,830 750,821 727,812
 704,803 681,794 658,785 634,777 611,769 587,762 565,755 542,750 521,744 500,740
 480,736 460,733 442,731 424,730 406,729 388,730 370,731 352,733 334,736 317,741
 300,746 283,753 267,760 252,769 238,778 224,789 212,800 201,812 191,824 182,837
 174,850 168,864 163,878 159,892 157,907 155,924 154,942 155,960 157,980 161,1000
 166,1022 172,1043 180,1066 189,1088 199,1111 210,1133 221,1154 234,1175 247,1194
 261,1213 275,1231 289,1247 304,1263 318,1276 333,1289 348,1302 364,1314 381,1325
 399,1337 418,1348 438,1358 458,1368 479,1378 501,1386 522,1395 544,1402 567,1409
 588,1415 610,1421 632,1426 654,1430 675,1434 697,1438 719,1441 742,1444 765,1447
 788,1449 813,1451 838,1453 863,1454 889,1455 914,1456 940,1457 965,1458 989,1458
 1012,1458 1035,1458 1056,1458 1076,1457 1095,1457 1112,1457 1128,1456 1143,1456
 1166,1455 1186,1453 1204,1452 1221,1451 1237,1449 1253,1447 1269,1445 1282,1443
 1292,1442 1299,1441 1302,1440" fill="#ffd600"
	stroke="#000000" stroke-width="30px" stroke-linejoin="bevel"/>
<!-- Line -->
<polyline points=" 1277,1811 1274,1813 1268,1816 1257,1822 1240,1832 1219,1844 1194,1858 1166,1873
 1137,1890 1107,1906 1079,1922 1051,1937 1025,1951 1001,1964 978,1976 956,1988
 935,1998 914,2009 893,2019 873,2029 853,2038 834,2047 814,2056 793,2066 772,2075
 750,2084 727,2093 704,2102 681,2111 658,2120 634,2128 611,2136 587,2143 565,2150
 542,2155 521,2161 500,2165 480,2169 460,2172 442,2174 424,2175 406,2176 388,2175
 370,2174 352,2172 334,2169 317,2164 300,2159 283,2152 267,2145 252,2136 238,2127
 224,2116 212,2105 201,2093 191,2081 182,2068 174,2055 168,2041 163,2027 159,2013
 157,1998 155,1981 154,1963 155,1945 157,1925 161,1905 166,1883 172,1862 180,1839
 189,1817 199,1794 210,1772 221,1751 234,1730 247,1711 261,1692 275,1674 289,1658
 304,1642 318,1629 333,1616 348,1603 364,1591 381,1580 399,1568 418,1557 438,1547
 458,1537 479,1527 501,1519 522,1510 544,1503 567,1496 588,1490 610,1484 632,1479
 654,1475 675,1471 697,1467 719,1464 742,1461 765,1458 788,1456 813,1454 838,1452
 863,1451 889,1450 914,1449 940,1448 965,1447 989,1447 1012,1447 1035,1447 1056,1447
 1076,1448 1095,1448 1112,1448 1128,1449 1143,1450 1166,1450 1186,1452 1204,1453
 1221,1454 1237,1456 1253,1458 1269,1460 1282,1462 1292,1463 1299,1464 1302,1465
" fill="#ffd600"
	stroke="#000000" stroke-width="30px" stroke-linejoin="bevel"/>
<!-- Ellipse -->
<ellipse cx="2804" cy="1521" rx="1725" ry="1087" fill="#ffd600"
	stroke="#000000" stroke-width="30px"/>
<!-- Arc -->
<path d="M 3134,1382 A 116 116 0 0 0 3126 1601" fill="#ffd600"
	stroke="#000000" stroke-width="30px"/>
<!-- Arc -->
<path d="M 2871,1382 A 116 116 0 0 0 2863 1601" fill="#ffd600"
	stroke="#000000" stroke-width="30px"/>
<!-- Arc -->
<path d="M 1827,1374 A 116 116 0 0 0 1819 1593" fill="#ffd600"
	stroke="#000000" stroke-width="30px"/>
<!-- Arc -->
<path d="M 2064,1382 A 116 116 0 0 0 2056 1601" fill="#ffd600"
	stroke="#000000" stroke-width="30px"/>
<!-- Arc -->
<path d="M 2292,1400 A 116 116 0 0 0 2284 1619" fill="#ffd600"
	stroke="#000000" stroke-width="30px"/>
<!-- Arc -->
<path d="M 2573,1400 A 116 116 0 0 0 2565 1619" fill="#ffd600"
	stroke="#000000" stroke-width="30px"/>
<!-- Arc -->
<path d="M 3177,2155 A 86 86 0 0 1 3133 1988" fill="#ffd600"
	stroke="#000000" stroke-width="30px"/>
<!-- Arc -->
<path d="M 2869,2173 A 86 86 0 0 1 2825 2006" fill="#ffd600"
	stroke="#000000" stroke-width="30px"/>
<!-- Arc -->
<path d="M 2580,2181 A 86 86 0 0 1 2536 2014" fill="#ffd600"
	stroke="#000000" stroke-width="30px"/>
<!-- Arc -->
<path d="M 2291,2155 A 86 86 0 0 1 2247 1988" fill="#ffd600"
	stroke="#000000" stroke-width="30px"/>
<!-- Arc -->
<path d="M 2010,2103 A 86 86 0 0 1 1966 1936" fill="#ffd600"
	stroke="#000000" stroke-width="30px"/>
<!-- Arc -->
<path d="M 1738,1997 A 86 86 0 0 1 1694 1830" fill="#ffd600"
	stroke="#000000" stroke-width="30px"/>
<!-- Arc -->
<path d="M 3273,803 A 86 86 0 0 0 3229 970" fill="#ffd600"
	stroke="#000000" stroke-width="30px"/>
<!-- Arc -->
<path d="M 2965,785 A 86 86 0 0 0 2921 952" fill="#ffd600"
	stroke="#000000" stroke-width="30px"/>
<!-- Arc -->
<path d="M 2676,777 A 86 86 0 0 0 2632 944" fill="#ffd600"
	stroke="#000000" stroke-width="30px"/>
<!-- Arc -->
<path d="M 2387,803 A 86 86 0 0 0 2343 970" fill="#ffd600"
	stroke="#000000" stroke-width="30px"/>
<!-- Arc -->
<path d="M 2106,855 A 86 86 0 0 0 2062 1022" fill="#ffd600"
	stroke="#000000" stroke-width="30px"/>
<!-- Arc -->
<path d="M 1834,961 A 86 86 0 0 0 1790 1128" fill="#ffd600"
	stroke="#000000" stroke-width="30px"/>
<!-- Circle -->
<circle cx="3836" cy="1283" r="173" fill="#ffd600"
	stroke="#000000" stroke-width="30px"/>
<!-- Circle -->
<circle cx="3830" cy="1283" r="65" fill="#000000"
	stroke="#000000" stroke-width="30px"/>
<!-- Arc -->
<path d="M 4495,1727 A 457 457 0 0 1 3871 1674" fill="#ffd600"
	stroke="#000000" stroke-width="30px"/>
<!-- Arc -->
<path d="M 3631,746 A 1127 1127 0 0 0 3678 2299" fill="#ffd600"
	stroke="#000000" stroke-width="30px"/>
</g>
</svg>
